<svg xmlns="http://www.w3.org/2000/svg" viewBox="0 0 100 100"><defs><style>.cls-1{fill:#fff;}.cls-2{fill:#ce181e;}</style></defs><title>newNFC-Client</title><g id="Layer_1" data-name="Layer 1"><rect class="cls-1" width="100" height="100" rx="16.67" ry="16.67"/><path class="cls-2" d="M35.81,80.5c0-19.32,11.48-35,25.63-35,8,0,15.19,5,19.89,12.92v-39a8.78,8.78,0,0,0-7.86-8.74L28.4,5.86a8.79,8.79,0,0,0-9.73,8.74V85.83a8.69,8.69,0,0,0,2.92,6.54h0a8.69,8.69,0,0,0,6.81,2.2l45.08-4.82A8.78,8.78,0,0,0,81.33,81v-.5ZM61.44,17A12.82,12.82,0,1,1,48.63,29.8,12.82,12.82,0,0,1,61.44,17Z"/><path class="cls-2" d="M70.27,57.68a1.42,1.42,0,0,0-1.36-1.34c-.83,0-3.51-.09-4.28-.09,1.38,1,1.57,2.74,1.69,6.06.08,2,0,8.87,0,9.16l0,1.88-7.24-7.24V63.85l5.76,5.76c0-1.14,0-2.62,0-4s0-2.52-.06-3.15c-.22-3.62-.55-5.32-2.44-6a5.93,5.93,0,0,0-2-.26c-.74,0-5.91,0-6.66,0a1.39,1.39,0,0,0-1.36,1.36c0,.73,0,14.41,0,15.16a1.42,1.42,0,0,0,1.36,1.34c.83,0,3.51.06,4.28.06-1.38-1-1.57-2.74-1.69-6.06-.08-2,0-8.87,0-9.16l0-1.88,7.24,7.24v2.26l-5.76-5.76c0,1.14,0,2.62,0,4s0,2.52.06,3.15c.22,3.62.55,5.32,2.44,6a5.93,5.93,0,0,0,2,.26c.74,0,5.91,0,6.66,0a1.39,1.39,0,0,0,1.36-1.36c0-.73,0-14.38,0-15.12"/></g></svg>